<?xml version="1.0" standalone="no"?>
<!DOCTYPE svg PUBLIC "-//W3C//DTD SVG 20010904//EN"
 "http://www.w3.org/TR/2001/REC-SVG-20010904/DTD/svg10.dtd">
<svg version="1.0" xmlns="http://www.w3.org/2000/svg"
 width="600.000000pt" height="600.000000pt" viewBox="0 0 600.000000 600.000000"
 preserveAspectRatio="xMidYMid meet">

<g transform="translate(0.000000,600.000000) scale(0.100000,-0.100000)"
fill="#000000" stroke="none">
<path d="M3580 5839 c0 -5 5 -7 10 -4 7 4 8 -3 4 -21 -5 -19 -4 -25 5 -20 6 4
11 1 11 -9 0 -9 -4 -14 -9 -11 -5 3 -4 -15 1 -40 9 -39 21 -57 81 -113 241
-225 259 -245 249 -271 -11 -28 -220 -246 -228 -237 -3 2 45 53 106 112 60 60
110 115 110 124 0 9 -8 4 -22 -15 -13 -16 -64 -70 -113 -119 -92 -91 -131
-135 -107 -121 17 10 15 -9 -3 -24 -8 -6 -20 -8 -26 -4 -8 5 -9 3 -4 -6 4 -7
4 -15 -1 -19 -5 -3 -20 -39 -34 -79 -23 -68 -23 -73 -7 -89 9 -9 20 -14 24
-10 3 4 -2 13 -12 21 -12 8 -15 18 -10 26 7 11 10 9 16 -6 6 -16 8 -14 10 11
1 17 1 39 0 49 -1 13 55 76 169 191 129 130 170 177 170 196 -1 16 -16 36 -50
64 -28 22 -50 44 -50 50 0 5 20 -11 45 -35 25 -24 45 -39 45 -33 0 6 -68 76
-151 155 -150 142 -184 186 -190 243 -3 32 -16 55 -30 55 -5 0 -9 -5 -9 -11z
m255 -332 c22 -22 35 -38 29 -36 -17 6 -224 203 -224 213 0 8 54 -41 195 -177z"/>
<path d="M3403 5643 c-260 -299 -247 -283 -226 -283 22 0 63 -39 67 -64 1 -9
49 -57 107 -107 57 -50 120 -105 139 -122 51 -47 70 -61 70 -50 0 5 -67 67
-148 137 -145 125 -150 131 -143 176 1 3 17 23 36 45 20 22 47 55 62 72 14 18
30 30 37 26 6 -3 8 -3 4 2 -9 10 42 76 53 69 5 -3 8 0 7 8 -2 7 2 12 8 11 7
-1 11 5 10 15 0 10 6 16 16 16 10 -1 15 2 13 7 -3 4 10 29 30 54 19 26 35 55
35 64 0 27 -21 81 -31 81 -4 0 -70 -71 -146 -157z"/>
<path d="M3725 5715 c183 -175 226 -218 220 -223 -3 -3 -38 25 -77 64 -91 88
-95 91 -149 139 -25 22 33 -36 128 -130 154 -150 174 -174 173 -202 0 -39 -9
-49 -204 -244 -86 -86 -156 -164 -156 -173 0 -14 3 -15 23 -5 21 12 21 11 8
-7 -8 -10 85 80 207 201 l223 220 -42 38 c-45 41 -73 50 -43 15 10 -13 -4 -3
-31 22 -27 25 -52 46 -54 48 -2 1 -1 5 3 10 5 4 21 -9 37 -28 16 -19 29 -29
29 -23 0 12 -312 313 -339 326 -9 5 11 -17 44 -48z"/>
<path d="M2585 5393 c4 -32 18 -102 32 -156 14 -56 23 -111 20 -130 -7 -40 24
-133 42 -129 10 2 12 -4 7 -22 -5 -21 -3 -24 11 -19 11 4 14 3 9 -6 -4 -6 -1
-23 8 -36 9 -13 16 -32 16 -41 0 -10 3 -14 7 -11 3 4 12 -1 19 -11 16 -20 18
-36 4 -27 -6 3 -7 -1 -3 -10 4 -12 8 -13 13 -5 11 17 22 -4 14 -27 -4 -13 -3
-14 4 -5 7 10 15 4 32 -25 13 -21 23 -43 23 -50 0 -7 3 -11 6 -10 3 0 49 -42
101 -95 52 -52 106 -101 119 -108 13 -6 -13 23 -57 66 -95 93 -186 210 -176
226 4 7 3 8 -4 4 -8 -5 -10 -1 -5 10 5 13 3 15 -7 9 -8 -5 -11 -4 -7 2 4 6 0
16 -8 23 -23 19 -65 109 -54 115 5 4 22 -21 38 -53 15 -33 39 -74 52 -91 13
-16 40 -51 59 -78 43 -59 164 -187 205 -216 17 -12 1 8 -35 44 -36 36 -83 89
-105 117 -22 28 -50 64 -63 79 -32 39 -223 430 -260 533 -17 47 -36 109 -42
138 -15 69 -23 66 -15 -5z"/>
<path d="M2626 5353 c23 -93 77 -219 125 -289 16 -23 25 -45 21 -49 -4 -3 -1
-5 7 -3 7 2 16 -3 19 -11 3 -9 0 -11 -8 -6 -9 6 -10 3 -2 -11 18 -33 95 -103
159 -145 61 -40 79 -57 48 -45 -27 10 -16 -3 16 -20 19 -9 28 -11 24 -4 -5 8
-3 11 6 8 8 -3 13 -11 11 -17 -2 -10 11 -15 31 -12 4 1 32 -10 63 -24 30 -14
60 -25 67 -25 7 0 -29 20 -79 44 -137 65 -284 168 -320 224 -11 17 2 9 37 -24
145 -135 348 -232 564 -269 101 -17 142 -15 58 3 -58 13 -108 31 -101 37 2 2
31 0 64 -5 32 -5 80 -10 106 -11 30 -2 45 -6 42 -14 -3 -6 8 -15 23 -21 22 -7
5 -10 -74 -9 -94 0 -125 -7 -90 -21 23 -9 214 14 249 29 18 9 49 18 70 21 20
4 39 14 42 22 4 10 14 14 26 11 11 -3 20 -2 20 1 0 4 -93 7 -207 7 -121 0
-246 6 -298 13 -296 44 -516 188 -630 412 -32 63 -75 185 -75 212 0 10 -5 18
-10 18 -6 0 -8 -11 -4 -27z m714 -633 c0 -5 -4 -10 -10 -10 -5 0 -10 5 -10 10
0 6 5 10 10 10 6 0 10 -4 10 -10z"/>
<path d="M3988 5338 c-5 -28 -4 -29 9 -13 15 21 17 45 4 45 -5 0 -11 -14 -13
-32z"/>
<path d="M3185 5304 c-12 -9 -30 -12 -43 -9 -15 4 -21 2 -17 -5 3 -5 12 -10
20 -10 8 0 18 -6 22 -12 4 -7 17 -20 28 -28 15 -11 14 -7 -4 13 -14 15 -21 27
-17 27 12 0 91 -66 264 -220 50 -45 92 -80 92 -77 0 7 -94 98 -142 137 -105
86 -179 164 -175 182 6 22 -1 22 -28 2z"/>
<path d="M4694 5229 c-4 -7 -3 -9 4 -5 5 3 12 0 15 -6 2 -7 7 -10 11 -7 4 3 0
12 -8 18 -11 9 -16 9 -22 0z"/>
<path d="M2730 5193 c0 -5 9 -21 19 -37 11 -16 17 -34 15 -40 -2 -6 17 -33 42
-61 25 -27 37 -36 26 -20 -11 17 -29 39 -41 49 -12 11 -21 24 -21 30 0 6 25
-16 55 -49 54 -58 65 -72 45 -60 -23 14 -7 -12 18 -29 l27 -20 -19 22 c-25 29
-9 28 23 0 14 -13 -10 15 -53 62 -43 46 -90 102 -104 122 -25 38 -32 45 -32
31z"/>
<path d="M4700 5191 c0 -6 5 -11 10 -11 6 0 10 -7 10 -16 0 -9 -5 -12 -12 -8
-8 5 -9 2 -5 -10 4 -10 7 -31 7 -46 0 -18 10 -39 28 -57 33 -32 148 -164 211
-240 23 -29 44 -64 45 -78 2 -13 0 -22 -4 -20 -4 2 -17 -10 -30 -28 l-23 -32
29 24 c16 14 12 8 -8 -12 -20 -21 -43 -36 -50 -35 -6 2 -12 -6 -13 -17 0 -15
-6 -19 -25 -17 -18 1 -21 0 -11 -7 10 -7 -7 -24 -69 -70 -46 -34 -89 -60 -96
-57 -8 3 -13 0 -11 -6 1 -6 -29 -28 -68 -49 -71 -39 -102 -49 -89 -27 4 7 3 8
-5 4 -6 -4 -9 -11 -6 -16 6 -9 -25 -23 -33 -15 -3 3 1 5 8 5 7 0 10 3 7 6 -4
4 -13 2 -20 -5 -20 -16 -148 -61 -174 -61 -12 0 -26 -6 -30 -14 -8 -13 -47
-20 -178 -33 -33 -3 -65 -10 -72 -15 -7 -5 -65 -7 -140 -4 -70 3 -185 8 -254
11 -69 3 -141 10 -160 15 -42 12 -59 12 -39 1 14 -8 127 -42 240 -72 37 -9 41
-13 25 -19 -29 -11 100 -25 205 -23 118 3 217 20 324 55 276 91 501 214 699
383 103 88 127 134 87 170 -21 19 -28 41 -9 29 15 -9 -3 24 -28 51 -10 12 -43
50 -73 85 -30 36 -70 81 -88 100 -40 43 -74 103 -81 149 -6 31 -31 57 -31 32z
m202 -299 c50 -57 88 -105 86 -108 -5 -4 -222 243 -246 281 -17 26 48 -44 160
-173z m-1099 -699 c-7 -2 -21 -2 -30 0 -10 3 -4 5 12 5 17 0 24 -2 18 -5z
m272 -3 c-7 -12 -55 -14 -55 -2 0 4 14 9 31 10 19 2 28 -2 24 -8z m-328 -26
c-3 -3 -12 -4 -19 -1 -8 3 -5 6 6 6 11 1 17 -2 13 -5z m60 -10 c-3 -3 -12 -4
-19 -1 -8 3 -5 6 6 6 11 1 17 -2 13 -5z"/>
<path d="M4583 5118 c-79 -74 -166 -142 -240 -187 -72 -44 -135 -107 -139
-137 -2 -21 1 -24 19 -19 70 21 324 179 406 252 l54 49 -7 47 c-4 25 -11 49
-16 52 -6 3 -40 -22 -77 -57z"/>
<path d="M4808 5107 c44 -46 40 -59 -5 -16 -32 29 -26 16 12 -27 252 -281 289
-338 251 -390 -13 -17 -14 -15 -11 26 4 44 4 44 -5 10 -5 -19 -7 -42 -4 -51 8
-28 -157 -172 -320 -278 -61 -39 -103 -71 -95 -71 8 -1 3 -7 -11 -15 -43 -24
-12 -16 43 11 135 68 365 241 476 357 l34 36 -94 113 c-51 62 -103 124 -115
138 -12 14 -44 50 -71 80 -77 87 -100 110 -109 110 -4 0 6 -15 24 -33z m134
-155 c98 -112 149 -177 162 -202 4 -8 -8 3 -26 24 -128 153 -214 252 -225 259
-12 7 -18 27 -9 27 2 0 46 -48 98 -108z m-261 -622 c-22 -19 -41 -26 -41 -15
0 5 51 34 60 34 3 0 -6 -9 -19 -19z"/>
<path d="M1821 4709 c-83 -11 -96 -17 -41 -19 38 -2 41 -3 20 -10 -18 -6 -3
-8 49 -9 76 -1 132 -10 279 -42 46 -11 87 -17 91 -15 12 8 202 -54 196 -64 -3
-5 0 -12 6 -16 8 -4 9 -3 5 4 -24 39 78 -15 171 -90 78 -63 131 -130 179 -227
32 -65 41 -90 59 -164 18 -80 27 -196 22 -296 -7 -126 -14 -164 -29 -155 -5 3
-6 -6 -3 -23 5 -23 4 -25 -5 -13 -10 12 -11 11 -7 -7 3 -13 1 -23 -3 -23 -12
0 -41 -90 -33 -103 3 -5 2 -7 -4 -4 -9 6 -21 -12 -37 -53 -3 -8 -19 -37 -36
-65 -17 -27 -33 -58 -37 -67 -3 -10 -9 -18 -13 -18 -5 0 -12 -9 -15 -20 -11
-36 -187 -207 -267 -260 -53 -35 -80 -59 -84 -76 -8 -33 12 -100 32 -108 8 -3
13 -10 9 -15 -3 -5 0 -13 6 -17 8 -5 9 -3 4 6 -6 10 -4 12 9 7 10 -4 20 -7 22
-7 3 0 3 -4 0 -9 -4 -5 2 -7 12 -4 18 4 182 -53 182 -63 0 -3 -10 -2 -22 1
-18 5 -20 4 -8 -4 8 -6 22 -8 31 -6 9 3 40 -5 70 -18 66 -29 147 -52 155 -44
4 3 -7 9 -22 12 -16 3 -69 22 -119 42 -49 20 -128 51 -175 70 -88 35 -133 57
-130 64 1 2 -4 17 -10 33 -9 24 -7 35 14 71 14 23 43 54 65 68 333 220 529
680 455 1068 -43 228 -185 418 -389 522 -68 34 -187 73 -265 86 -110 19 -160
33 -160 43 0 6 9 8 21 5 11 -3 28 -3 37 1 10 4 -50 9 -133 12 l-150 6 157 2
c159 2 261 -10 343 -42 l40 -15 -75 4 -75 5 106 -33 c110 -35 217 -87 282
-138 20 -17 37 -27 37 -24 0 19 -196 161 -291 210 -89 47 -344 68 -528 44z"/>
<path d="M2138 4673 c6 -2 18 -2 25 0 6 3 1 5 -13 5 -14 0 -19 -2 -12 -5z"/>
<path d="M3348 4663 c7 -3 16 -2 19 1 4 3 -2 6 -13 5 -11 0 -14 -3 -6 -6z"/>
<path d="M2719 4431 c142 -172 201 -342 201 -581 0 -239 -89 -495 -244 -700
-59 -79 -120 -142 -224 -231 -23 -20 -42 -42 -42 -48 0 -12 83 54 174 139 102
95 191 225 267 388 25 55 52 141 93 297 3 11 3 -5 1 -35 -3 -30 -19 -100 -36
-155 -58 -186 -142 -327 -282 -473 -57 -59 -76 -84 -50 -63 155 119 310 375
369 608 36 144 43 335 15 467 -32 156 -145 364 -226 416 -10 7 0 -10 24 -39
43 -52 131 -197 131 -216 0 -5 -15 18 -34 51 -43 81 -93 148 -152 204 -44 42
-43 40 15 -29z"/>
<path d="M4725 4490 c-3 -6 1 -7 9 -4 18 7 21 14 7 14 -6 0 -13 -4 -16 -10z"/>
<path d="M1110 4456 c-41 -12 -95 -33 -120 -46 -25 -12 -45 -22 -45 -20 0 3
-163 -96 -173 -105 -2 -2 14 -13 36 -25 36 -20 38 -24 28 -45 -8 -18 -14 -21
-24 -13 -28 24 -22 -5 18 -79 24 -43 75 -136 115 -208 40 -71 90 -165 111
-207 21 -42 41 -75 45 -72 4 2 -15 47 -43 100 -27 53 -47 98 -44 101 6 7 46
-57 46 -75 0 -7 5 -10 12 -6 6 4 8 3 4 -4 -6 -10 22 -82 33 -82 11 0 10 60 0
88 -6 14 -7 23 -2 19 4 -5 13 -23 20 -40 11 -30 12 -30 12 -7 1 14 -9 45 -22
70 -30 59 -152 282 -187 340 -43 72 -45 96 -13 128 15 16 63 47 105 70 42 23
80 46 83 52 8 12 -113 -52 -172 -92 -23 -15 -45 -28 -50 -28 -11 1 144 100
244 156 113 63 110 69 -17 30z m-230 -220 c0 -3 -4 -8 -10 -11 -5 -3 -10 -1
-10 4 0 6 5 11 10 11 6 0 10 -2 10 -4z m7 -138 c-6 -18 22 -70 33 -63 6 3 7
-1 4 -9 -9 -22 -11 -21 -32 22 -17 33 -19 62 -5 62 2 0 3 -6 0 -12z m88 -182
c15 -31 31 -53 36 -51 4 3 10 1 13 -4 4 -5 -2 -8 -11 -7 -11 1 -32 29 -52 66
-18 34 -29 60 -24 57 6 -4 23 -31 38 -61z"/>
<path d="M4595 4410 c-3 -6 1 -7 9 -4 18 7 21 14 7 14 -6 0 -13 -4 -16 -10z"/>
<path d="M3938 4233 c6 -2 18 -2 25 0 6 3 1 5 -13 5 -14 0 -19 -2 -12 -5z"/>
<path d="M3555 4185 c17 -8 39 -14 50 -14 l20 0 -20 8 c-11 4 -33 11 -50 14
l-30 6 30 -14z"/>
<path d="M1935 4085 c-33 -6 -67 -14 -75 -17 -8 -3 -71 -25 -140 -48 -135 -45
-363 -152 -472 -222 -55 -35 -71 -51 -88 -90 -11 -25 -17 -54 -13 -64 4 -11 3
-15 -4 -11 -6 4 -15 -6 -21 -23 -12 -33 -1 -48 18 -25 9 10 9 15 1 15 -6 0
-11 5 -11 11 0 5 4 8 9 5 12 -8 22 20 14 41 -4 11 -3 14 5 9 10 -6 45 45 47
67 1 22 266 169 418 231 198 82 427 124 558 102 37 -7 66 -9 64 -5 -3 3 -23 9
-45 13 -22 3 -40 10 -40 14 0 12 -160 10 -225 -3z m-735 -359 c0 -2 -8 -10
-17 -17 -16 -13 -17 -12 -4 4 13 16 21 21 21 13z"/>
<path d="M2102 4053 c-25 -10 1 -23 46 -23 55 0 169 -25 191 -42 9 -7 3 2 -14
19 -27 28 -38 32 -105 38 -41 3 -82 8 -90 10 -8 2 -21 1 -28 -2z"/>
<path d="M4345 4042 c-32 -3 -36 -6 -20 -12 18 -8 18 -9 -5 -10 l-25 -1 25
-14 c14 -7 43 -17 65 -20 22 -3 71 -15 108 -27 80 -24 96 -19 35 10 -116 56
151 -14 282 -74 78 -36 174 -94 167 -101 -2 -2 -33 14 -68 35 -66 41 -247 117
-256 109 -2 -3 13 -11 34 -17 64 -21 193 -82 188 -90 -2 -3 2 -7 9 -7 21 0 87
-44 80 -54 -3 -5 -2 -9 3 -8 20 3 33 -2 31 -13 -2 -7 4 -12 13 -10 22 3 168
-152 248 -263 236 -329 333 -893 246 -1428 -33 -201 -97 -412 -171 -558 -24
-49 -44 -95 -44 -103 0 -8 -15 -31 -34 -51 -19 -20 -42 -52 -51 -73 -10 -20
-34 -54 -54 -76 -20 -21 -27 -33 -16 -26 21 13 145 163 145 176 0 4 6 15 14
23 45 53 127 245 169 401 82 299 109 745 63 1042 -31 198 -98 409 -174 549
-17 31 -30 65 -29 75 1 10 -4 19 -12 19 -8 0 -16 6 -19 14 -3 9 0 11 8 6 7 -4
-4 16 -23 45 -112 165 -358 375 -559 477 -105 53 -228 71 -373 55z m135 -42
c0 -5 -4 -10 -10 -10 -5 0 -10 5 -10 10 0 6 5 10 10 10 6 0 10 -4 10 -10z
m585 -271 c73 -63 179 -179 209 -229 29 -51 10 -33 -42 38 -50 67 -124 142
-212 214 -25 21 -40 38 -35 38 6 0 42 -27 80 -61z"/>
<path d="M1796 4009 c-58 -16 -114 -33 -124 -39 -11 -8 -12 -10 -2 -7 15 5
111 26 212 48 55 12 128 8 358 -17 38 -4 41 -3 21 6 -28 12 -158 28 -277 33
-64 3 -102 -2 -188 -24z"/>
<path d="M2490 3966 c0 -2 8 -10 18 -17 15 -13 16 -12 3 4 -13 16 -21 21 -21
13z"/>
<path d="M1620 3950 c-8 -5 -10 -10 -5 -10 6 0 17 5 25 10 8 5 11 10 5 10 -5
0 -17 -5 -25 -10z"/>
<path d="M2471 3944 c0 -11 3 -14 6 -6 3 7 2 16 -1 19 -3 4 -6 -2 -5 -13z"/>
<path d="M2530 3943 c0 -4 12 -19 27 -33 42 -40 102 -140 120 -199 50 -172
-67 -390 -265 -494 -40 -21 -72 -42 -72 -47 0 -10 85 33 160 82 79 51 126 107
171 204 41 91 40 72 26 296 -1 14 -5 26 -9 25 -3 -1 -19 17 -35 39 -48 70
-123 148 -123 127z"/>
<path d="M4007 3939 c-9 -6 -14 -15 -11 -21 4 -7 2 -8 -4 -4 -11 6 -37 -7 -87
-44 -37 -27 -235 -230 -235 -241 0 -5 6 -7 13 -3 7 4 9 3 4 -2 -5 -5 -14 -9
-20 -9 -16 0 -115 -147 -229 -340 -55 -93 -133 -221 -172 -283 -71 -114 -201
-266 -235 -277 -11 -3 -22 -17 -25 -32 -8 -30 0 -44 11 -17 4 10 41 53 82 94
84 83 154 184 316 458 59 101 114 186 122 189 7 3 11 8 8 13 -2 4 2 16 10 26
10 13 14 14 15 5 0 -7 6 -11 15 -7 24 9 18 -36 -10 -78 -14 -20 -25 -39 -25
-42 0 -2 -19 -37 -43 -77 -24 -39 -68 -112 -97 -162 -128 -216 -244 -357 -349
-425 -57 -37 -68 -57 -18 -32 99 49 167 107 240 204 19 26 37 45 39 42 3 -2 5
2 5 9 0 7 18 40 39 73 22 32 80 128 128 212 48 83 90 152 93 152 2 0 1 -5 -3
-12 -4 -7 -3 -8 5 -4 6 4 9 12 5 17 -3 6 23 54 59 107 98 146 127 183 136 177
5 -2 8 1 7 9 -2 27 186 208 282 271 23 15 42 30 42 32 0 6 -67 33 -82 33 -7 0
-21 -5 -31 -11z"/>
<path d="M2470 3915 c0 -5 5 -17 10 -25 5 -8 10 -10 10 -5 0 6 -5 17 -10 25
-5 8 -10 11 -10 5z"/>
<path d="M2522 3885 c15 -16 43 -57 63 -90 20 -33 34 -49 30 -35 -11 39 -40
82 -82 120 -31 28 -33 29 -11 5z"/>
<path d="M2500 3874 c0 -4 11 -19 24 -33 13 -15 35 -46 49 -71 15 -25 27 -41
27 -36 0 13 -68 122 -85 136 -8 7 -15 9 -15 4z"/>
<path d="M1395 3799 c-97 -50 -187 -110 -193 -127 -2 -8 2 -10 14 -5 13 5 15
3 9 -7 -5 -9 -4 -11 4 -6 6 4 9 11 6 16 -3 5 8 18 24 29 32 23 46 27 35 10 -4
-8 0 -8 15 0 25 14 28 23 4 15 -35 -11 31 35 107 76 41 21 71 39 65 40 -5 0
-46 -19 -90 -41z"/>
<path d="M5135 3761 c38 -40 51 -59 35 -50 -17 8 -9 -5 28 -46 170 -185 300
-466 358 -773 46 -241 45 -636 -2 -912 -53 -310 -153 -563 -301 -762 -44 -58
-74 -104 -66 -101 7 3 40 42 73 87 92 125 94 127 76 91 -19 -37 -85 -125 -150
-199 -27 -31 -46 -59 -44 -62 12 -12 148 138 210 231 193 291 291 677 291
1150 0 226 -18 420 -53 566 -67 285 -199 541 -359 699 -111 109 -167 156 -96
81z m152 -168 c44 -60 98 -139 120 -178 138 -245 208 -524 218 -862 l4 -158
-14 193 c-17 217 -49 396 -101 551 -60 182 -170 378 -278 497 -25 29 -46 55
-46 58 0 21 26 -7 97 -101z m330 -1380 c-2 -16 -4 -5 -4 22 0 28 2 40 4 28 2
-13 2 -35 0 -50z m-10 -70 c-3 -10 -5 -4 -5 12 0 17 2 24 5 18 2 -7 2 -21 0
-30z m-10 -75 c-3 -8 -6 -5 -6 6 -1 11 2 17 5 13 3 -3 4 -12 1 -19z m-80 -370
c-3 -8 -6 -5 -6 6 -1 11 2 17 5 13 3 -3 4 -12 1 -19z m-23 -72 c-9 -26 -18
-45 -20 -43 -2 2 3 25 12 51 9 26 18 45 20 43 2 -2 -3 -25 -12 -51z m-68 -167
c-19 -41 -41 -83 -50 -94 -9 -11 5 24 31 77 55 113 69 125 19 17z"/>
<path d="M5110 3756 c0 -2 8 -10 18 -17 15 -13 16 -12 3 4 -13 16 -21 21 -21
13z"/>
<path d="M2650 3651 c0 -104 -17 -156 -54 -165 -12 -3 -27 -16 -33 -29 -18
-39 -123 -146 -170 -173 -23 -14 -43 -31 -43 -37 0 -7 -7 -25 -15 -42 -12 -23
-4 -18 38 25 29 30 69 69 88 85 54 49 119 122 112 129 -4 3 2 6 11 6 12 0 16
-5 13 -14 -9 -22 16 -10 31 15 11 17 11 20 0 13 -7 -4 -3 4 9 19 27 35 47 118
40 165 -18 115 -27 116 -27 3z"/>
<path d="M4667 3669 c-14 -4 -28 -5 -30 -3 -2 2 -17 -2 -33 -11 -16 -8 -37
-15 -46 -15 -9 0 -20 -5 -24 -12 -4 -7 -3 -8 4 -4 7 4 12 5 12 3 0 -2 -35 -25
-77 -50 -142 -85 -239 -182 -319 -319 -39 -67 -120 -209 -152 -268 -14 -25
-38 -64 -53 -88 -16 -24 -29 -45 -29 -47 0 -3 -20 -31 -44 -62 -99 -131 -257
-254 -302 -236 -12 4 -15 3 -10 -5 5 -8 0 -12 -12 -12 -10 0 -45 -9 -77 -20
-67 -23 -68 -23 -60 -10 8 13 -4 13 -41 0 -16 -5 -65 -14 -109 -19 -76 -10
-74 -10 45 -6 250 8 425 92 569 271 74 92 104 137 206 319 100 179 157 265
204 315 21 22 36 42 33 45 -5 5 15 9 31 6 5 -1 6 3 2 9 -3 5 -1 10 5 10 7 0
25 11 42 25 43 36 141 92 193 110 69 23 125 22 235 -5 19 -4 59 -11 89 -15 50
-6 53 -5 41 11 -8 9 -41 34 -74 56 -56 37 -63 39 -126 36 -37 -1 -79 -5 -93
-9z m130 -55 c-3 -3 -12 -4 -19 -1 -8 3 -5 6 6 6 11 1 17 -2 13 -5z"/>
<path d="M4459 3593 c-13 -17 -13 -17 6 -3 11 8 22 16 24 17 2 2 0 3 -6 3 -6
0 -17 -8 -24 -17z"/>
<path d="M5090 3560 c0 -5 4 -10 9 -10 14 0 76 -62 126 -125 58 -75 138 -239
158 -325 32 -137 40 -219 34 -367 -6 -155 -22 -248 -64 -373 -26 -77 -89 -210
-99 -210 -3 0 -4 7 0 15 8 22 -3 45 -20 38 -8 -3 -12 -8 -9 -12 7 -12 -103
-186 -117 -186 -7 0 -12 -8 -10 -17 4 -24 -129 -160 -229 -233 -50 -37 -93
-74 -97 -83 -3 -9 -15 -24 -26 -33 -43 -35 30 -12 115 37 123 70 177 109 247
183 135 140 219 304 287 561 13 47 24 77 24 67 1 -10 6 -15 12 -11 6 3 10 29
8 58 -6 125 1 367 11 361 6 -3 10 -1 10 4 0 6 -4 11 -9 11 -12 0 -35 106 -27
125 3 8 1 17 -4 20 -4 3 -16 38 -25 78 -21 93 -80 215 -145 300 -29 37 -55 67
-59 67 -3 0 -23 16 -44 35 -38 35 -57 43 -57 25z m337 -1042 c-3 -8 -6 -5 -6
6 -1 11 2 17 5 13 3 -3 4 -12 1 -19z m-627 -842 c0 -3 -4 -8 -10 -11 -5 -3
-10 -1 -10 4 0 6 5 11 10 11 6 0 10 -2 10 -4z"/>
<path d="M4605 3549 c4 -6 -2 -8 -17 -4 -32 8 -134 -54 -216 -130 -88 -81
-145 -163 -252 -360 -123 -228 -202 -337 -323 -451 -67 -62 -81 -79 -53 -63
96 56 258 255 361 444 50 92 77 136 82 132 2 -3 -8 -27 -23 -53 -160 -291
-289 -454 -431 -546 -62 -40 -84 -60 -41 -37 126 67 262 196 349 329 31 47 93
153 139 235 133 240 202 333 310 419 19 15 27 25 17 22 -11 -4 -16 -2 -12 5 4
5 14 7 24 4 9 -3 26 2 37 11 17 14 17 15 1 10 -11 -4 -16 -2 -12 5 4 5 14 8
23 5 10 -3 28 1 41 8 20 11 21 14 7 19 -11 4 -15 3 -11 -4z m-374 -362 c-10
-9 -11 -8 -5 6 3 10 9 15 12 12 3 -3 0 -11 -7 -18z m-23 -37 c-7 -10 -14 -17
-17 -15 -4 4 18 35 25 35 2 0 -1 -9 -8 -20z"/>
<path d="M5090 3525 c0 -4 23 -32 50 -62 87 -95 156 -230 191 -373 7 -30 15
-47 17 -37 6 27 -53 206 -98 295 -31 61 -54 93 -100 132 -33 29 -60 49 -60 45z"/>
<path d="M5186 3367 c3 -10 9 -15 12 -12 3 3 0 11 -7 18 -10 9 -11 8 -5 -6z"/>
<path d="M1450 3230 c0 -5 18 -30 41 -56 60 -69 61 -71 140 -306 40 -119 77
-214 81 -212 8 5 12 -16 10 -51 -2 -18 -1 -18 8 -3 11 18 4 39 -113 365 -50
142 -62 194 -24 106 26 -60 207 -582 207 -598 0 -8 -4 -17 -10 -20 -6 -4 -10
8 -11 27 0 46 -34 127 -42 104 -9 -23 -9 -28 2 -22 10 6 37 -71 28 -80 -3 -4
-2 -15 4 -25 6 -12 6 -25 1 -36 -8 -14 -12 -12 -24 13 -9 16 -18 41 -22 57 -3
15 -11 27 -17 27 -8 0 -8 -4 -1 -12 5 -7 13 -29 17 -48 4 -19 10 -39 14 -45 3
-5 6 -13 6 -17 0 -17 21 -9 31 11 7 13 17 28 23 34 20 20 12 70 -30 187 -22
63 -42 122 -44 130 -4 17 -73 224 -85 255 -31 80 -49 109 -98 157 -55 54 -92
77 -92 58z m110 -97 c0 -8 -9 0 -50 45 l-45 47 48 -45 c26 -24 47 -45 47 -47z"/>
<path d="M1564 3202 c4 -7 14 -12 22 -12 8 0 14 -6 14 -12 1 -32 19 -39 121
-46 57 -4 127 -7 156 -7 47 0 50 -1 30 -13 -19 -12 -19 -13 -2 -7 11 4 45 9
75 12 30 3 66 12 80 19 22 12 14 13 -65 9 -59 -3 -83 -2 -70 4 11 5 47 11 80
12 33 1 -16 6 -110 10 -159 7 -281 20 -321 36 -12 4 -15 3 -10 -5z"/>
<path d="M1640 3122 c0 -5 28 -15 63 -21 76 -13 107 -14 125 -2 8 5 -20 11
-73 15 -47 4 -93 10 -101 13 -8 3 -14 1 -14 -5z"/>
<path d="M1520 3050 c0 -8 5 -22 10 -30 9 -13 10 -13 10 0 0 8 -5 22 -10 30
-9 13 -10 13 -10 0z"/>
<path d="M5373 3033 c2 -18 -1 -34 -6 -36 -5 -1 -2 -9 7 -16 14 -12 16 -10 15
10 -1 13 -5 35 -10 49 -8 23 -8 22 -6 -7z"/>
<path d="M1551 2970 c0 -8 4 -22 9 -30 12 -18 12 -2 0 25 -6 13 -9 15 -9 5z"/>
<path d="M2383 2913 c-30 -33 -34 -43 -30 -77 6 -43 14 -55 44 -60 12 -3 34
-11 50 -19 15 -8 34 -12 42 -9 9 3 11 0 7 -7 -4 -6 -4 -11 1 -10 4 1 47 -17
94 -39 48 -23 96 -42 106 -42 10 0 24 -5 31 -12 9 -9 12 -8 12 5 0 16 8 17 78
13 50 -4 68 -3 52 3 -14 5 -58 9 -98 10 -59 1 -89 8 -160 37 -48 19 -100 40
-117 46 -69 26 -101 41 -112 56 -22 27 -15 69 18 107 42 47 26 45 -18 -2z"/>
<path d="M5384 2942 c-8 -5 -9 -28 -2 -82 6 -41 7 -120 4 -175 -9 -150 -37
-262 -102 -414 -21 -48 -9 -50 15 -3 53 105 94 278 105 452 8 105 -4 232 -20
222z"/>
<path d="M2500 2919 c0 -5 5 -7 10 -4 6 3 10 8 10 11 0 2 -4 4 -10 4 -5 0 -10
-5 -10 -11z"/>
<path d="M1571 2910 c0 -8 4 -22 9 -30 12 -18 12 -2 0 25 -6 13 -9 15 -9 5z"/>
<path d="M2469 2893 c-13 -16 -12 -17 4 -4 9 7 17 15 17 17 0 8 -8 3 -21 -13z"/>
<path d="M292 2840 c0 -14 2 -19 5 -12 2 6 2 18 0 25 -3 6 -5 1 -5 -13z"/>
<path d="M1596 2840 c3 -14 11 -32 16 -40 6 -10 7 -7 2 10 -3 14 -11 32 -16
40 -6 10 -7 7 -2 -10z"/>
<path d="M293 2770 c0 -25 2 -35 4 -22 2 12 2 32 0 45 -2 12 -4 2 -4 -23z"/>
<path d="M1626 2747 c3 -10 9 -15 12 -12 3 3 0 11 -7 18 -10 9 -11 8 -5 -6z"/>
<path d="M255 2590 c5 -166 39 -425 60 -456 17 -26 20 -60 5 -69 -14 -9 1 -98
19 -112 9 -6 19 -9 23 -7 5 3 8 -1 8 -10 0 -8 3 -22 7 -32 5 -12 3 -15 -6 -9
-10 6 -11 0 -6 -26 11 -52 23 -79 35 -79 6 0 8 -11 4 -26 -5 -18 -3 -25 4 -21
6 5 10 -6 10 -28 0 -40 60 -197 72 -190 5 3 6 -5 2 -17 -3 -14 -1 -19 6 -14 8
4 10 2 6 -8 -12 -31 166 -343 269 -471 63 -78 219 -234 231 -231 6 2 7 1 2 -2
-5 -3 2 -13 15 -23 18 -14 20 -19 8 -19 -41 0 -250 228 -361 395 -82 123 -178
316 -248 500 -18 47 -60 183 -60 195 0 6 -6 26 -14 43 -8 18 -17 39 -19 47
-15 42 -4 -40 13 -103 92 -342 290 -724 458 -887 26 -25 52 -55 58 -65 11 -21
130 -115 176 -140 34 -19 50 0 19 21 -12 9 -19 19 -16 23 7 13 -32 44 -46 35
-7 -4 -10 -3 -6 3 3 5 -14 29 -38 53 -52 51 -61 79 -12 34 l32 -29 -29 32
c-16 18 -32 31 -35 28 -6 -7 -61 46 -61 59 0 5 12 -1 27 -15 15 -14 9 -3 -14
26 -151 185 -329 541 -414 829 -12 44 -25 74 -27 68 -2 -6 13 -63 34 -128 77
-248 181 -471 296 -633 33 -45 57 -85 55 -87 -5 -5 -75 92 -124 171 -74 120
-149 280 -198 422 -10 28 -23 51 -29 50 -6 -1 -10 11 -9 28 2 17 -8 64 -21
105 -69 216 -129 514 -151 760 l-14 145 4 -135z m132 -732 c-3 -8 -6 -5 -6 6
-1 11 2 17 5 13 3 -3 4 -12 1 -19z m16 -38 c3 -11 1 -18 -4 -14 -5 3 -9 12 -9
20 0 20 7 17 13 -6z m57 -185 c0 -5 -5 -3 -10 5 -5 8 -10 20 -10 25 0 6 5 3
10 -5 5 -8 10 -19 10 -25z m24 -60 c3 -8 1 -15 -4 -15 -6 0 -10 7 -10 15 0 8
2 15 4 15 2 0 6 -7 10 -15z m347 -568 c12 -22 12 -22 -10 -3 -11 11 -21 23
-21 28 0 14 19 -1 31 -25z m124 -167 c10 -11 16 -20 13 -20 -3 0 -13 9 -23 20
-10 11 -16 20 -13 20 3 0 13 -9 23 -20z"/>
<path d="M1641 2710 c0 -8 4 -22 9 -30 12 -18 12 -2 0 25 -6 13 -9 15 -9 5z"/>
<path d="M2904 2655 c-4 -9 -20 -15 -43 -15 -33 -1 -35 -2 -17 -15 17 -13 22
-12 47 2 16 10 29 23 29 30 0 18 -9 16 -16 -2z"/>
<path d="M1686 2577 c9 -27 18 -46 20 -44 5 5 -16 69 -27 82 -5 5 -2 -12 7
-38z"/>
<path d="M2805 2590 c3 -5 12 -10 20 -10 8 0 17 5 20 10 4 6 -5 10 -20 10 -15
0 -24 -4 -20 -10z"/>
<path d="M3620 2535 c-14 -8 -50 -22 -80 -31 -30 -9 -70 -26 -89 -37 -24 -15
-36 -17 -39 -9 -4 14 -32 16 -32 2 0 -5 6 -10 13 -10 6 0 3 -6 -8 -12 -10 -6
-63 -13 -118 -16 -59 -3 -93 -8 -85 -13 35 -22 206 5 308 49 79 34 170 81 170
87 0 8 -14 5 -40 -10z"/>
<path d="M1960 2505 c-99 -23 -114 -32 -149 -91 -18 -30 -30 -58 -27 -61 3 -4
6 -1 6 5 0 6 6 9 13 6 7 -2 19 7 27 21 8 15 23 31 34 37 37 20 262 22 379 4
60 -10 111 -15 115 -12 3 3 1 6 -4 6 -5 0 -40 6 -79 14 -74 15 -251 31 -322
30 -23 -1 -61 -11 -84 -22 -42 -21 -43 -21 -22 -1 28 28 176 60 286 62 48 0
87 5 87 9 0 13 -199 7 -260 -7z m-140 -116 c-7 -11 -14 -18 -17 -15 -3 3 0 12
7 21 18 21 23 19 10 -6z"/>
<path d="M2967 2513 c-15 -2 -25 -9 -21 -14 3 -6 -3 -13 -14 -16 -12 -3 -23
-16 -27 -32 -8 -39 9 -115 34 -146 11 -15 21 -31 21 -36 0 -4 14 -38 32 -76
38 -83 93 -277 113 -398 17 -104 19 -301 5 -395 -13 -80 -72 -270 -82 -264 -4
3 -5 -2 -2 -10 6 -17 -114 -266 -128 -266 -5 0 -7 -4 -4 -9 4 -5 3 -11 -1 -13
-5 -1 -28 -29 -52 -61 -24 -32 -71 -83 -105 -114 -44 -41 -50 -48 -21 -28 166
117 311 335 369 555 38 144 50 241 50 395 -1 246 -49 454 -162 695 -30 64 -35
87 -33 142 2 43 38 61 121 60 39 -1 70 3 70 9 0 9 -3 10 -47 13 -16 1 -41 5
-58 8 -16 3 -42 3 -58 1z"/>
<path d="M2280 2496 c0 -2 7 -7 16 -10 8 -3 12 -2 9 4 -6 10 -25 14 -25 6z"/>
<path d="M2978 2449 c-29 -21 -38 -68 -20 -97 6 -8 9 -2 9 17 0 58 52 89 108
65 17 -7 44 -13 60 -13 23 0 16 4 -25 15 -30 8 -57 18 -60 22 -11 15 -46 10
-72 -9z"/>
<path d="M2274 2453 c10 -3 47 -13 82 -23 48 -13 61 -14 53 -4 -14 17 -65 32
-114 32 -22 0 -32 -2 -21 -5z"/>
<path d="M3132 2450 c22 -12 124 -22 113 -12 -5 5 -36 12 -68 14 -33 3 -53 2
-45 -2z"/>
<path d="M361 2384 c0 -11 3 -14 6 -6 3 7 2 16 -1 19 -3 4 -6 -2 -5 -13z"/>
<path d="M3007 2393 c-15 -15 -5 -63 33 -150 94 -219 133 -412 134 -658 0
-194 -16 -298 -68 -459 -63 -190 -148 -329 -292 -473 -95 -94 -96 -114 -1 -27
73 68 85 69 16 2 -37 -35 -95 -83 -129 -106 -35 -23 -59 -42 -54 -42 17 0 154
96 219 154 255 225 402 653 365 1062 -15 175 -57 356 -109 482 -57 136 -85
195 -89 184 -2 -6 10 -37 26 -69 39 -77 129 -344 109 -323 -3 3 -19 48 -37
100 -18 52 -52 142 -76 199 -25 58 -42 111 -40 118 6 14 3 17 -7 6z m-77
-1656 c0 -2 -10 -12 -22 -23 l-23 -19 19 23 c18 21 26 27 26 19z"/>
<path d="M371 2345 c1 -21 27 -98 28 -80 0 6 -6 30 -13 55 -8 25 -15 36 -15
25z"/>
<path d="M2678 2298 c89 -91 155 -210 166 -298 5 -40 3 -38 -17 25 -25 76 -56
140 -63 132 -3 -2 7 -39 21 -81 15 -46 23 -86 19 -98 -5 -17 -3 -20 10 -15 10
4 16 1 16 -8 0 -8 -3 -15 -7 -15 -5 0 -6 -38 -4 -86 3 -94 -7 -150 -43 -225
-26 -53 -20 -64 13 -23 12 15 21 23 21 18 0 -5 -12 -22 -26 -39 -15 -16 -35
-49 -46 -72 -10 -24 -26 -43 -35 -43 -9 0 -13 -6 -10 -15 4 -8 1 -17 -5 -21
-7 -4 -8 -3 -4 5 4 6 0 14 -8 17 -17 7 -21 -1 45 109 11 19 16 35 10 35 -6 0
-11 -5 -11 -11 0 -16 -96 -162 -125 -189 -37 -35 -30 -49 8 -14 l32 29 -29
-32 c-16 -18 -33 -30 -37 -27 -4 2 -10 0 -14 -6 -3 -5 -1 -10 5 -10 14 0 -74
-78 -135 -120 -48 -33 -58 -55 -11 -24 15 9 29 14 32 11 5 -5 -29 -32 -92 -74
-11 -7 6 -2 38 11 90 38 224 133 294 209 75 81 133 191 166 312 29 108 29 283
0 376 -26 82 -49 135 -67 157 -67 78 -139 152 -148 152 -5 0 13 -24 41 -52z
m169 -540 c-3 -8 -6 -5 -6 6 -1 11 2 17 5 13 3 -3 4 -12 1 -19z m-10 -50 c-3
-8 -6 -5 -6 6 -1 11 2 17 5 13 3 -3 4 -12 1 -19z m-16 -51 c-10 -9 -11 -8 -5
6 3 10 9 15 12 12 3 -3 0 -11 -7 -18z"/>
<path d="M2580 2312 c0 -5 11 -19 25 -32 40 -37 120 -160 145 -222 15 -36 30
-58 39 -58 14 1 14 2 -1 10 -9 6 -20 24 -23 41 -11 47 -67 137 -129 207 -31
35 -56 59 -56 54z"/>
<path d="M2680 2265 c19 -19 36 -35 39 -35 3 0 -10 16 -29 35 -19 19 -36 35
-39 35 -3 0 10 -16 29 -35z"/>
<path d="M2656 2259 c16 -20 31 -34 33 -32 3 2 -10 18 -29 36 l-34 32 30 -36z"/>
<path d="M371 2262 c-3 -60 88 -305 151 -406 142 -229 225 -332 343 -429 35
-28 23 -13 -37 49 -49 49 -88 94 -88 99 0 5 43 -33 94 -84 52 -52 93 -98 90
-102 -2 -4 0 -10 5 -13 5 -4 8 1 7 9 -1 8 -40 54 -87 102 -46 49 -103 111
-127 138 -33 39 -36 40 -11 8 18 -24 30 -45 27 -48 -3 -3 -25 21 -50 52 -114
148 -226 367 -297 578 -11 33 -20 54 -20 47z"/>
<path d="M405 2225 c8 -37 66 -188 71 -183 2 2 -15 51 -37 108 -22 58 -37 92
-34 75z"/>
<path d="M5502 2210 c0 -14 2 -19 5 -12 2 6 2 18 0 25 -3 6 -5 1 -5 -13z"/>
<path d="M5346 2205 c-9 -26 -7 -32 5 -12 6 10 9 21 6 23 -2 3 -7 -2 -11 -11z"/>
<path d="M3602 2180 c0 -14 2 -19 5 -12 2 6 2 18 0 25 -3 6 -5 1 -5 -13z"/>
<path d="M5492 2130 c0 -19 2 -27 5 -17 2 9 2 25 0 35 -3 9 -5 1 -5 -18z"/>
<path d="M3600 2102 c0 -28 4 -54 10 -57 6 -4 8 13 4 47 -8 69 -14 74 -14 10z"/>
<path d="M3565 2077 c-4 -28 -1 -90 9 -156 9 -60 16 -148 16 -195 0 -63 3 -85
12 -84 7 2 14 -8 16 -22 2 -16 0 -21 -6 -12 -5 7 -8 -16 -8 -58 1 -38 4 -70 7
-70 4 0 9 -22 13 -48 3 -26 21 -80 40 -119 19 -39 32 -74 29 -76 -2 -3 5 -10
16 -17 22 -11 28 -2 11 18 -5 7 -2 6 7 -2 13 -12 14 -18 3 -30 -9 -12 -9 -16
-1 -16 7 0 19 -16 27 -35 8 -19 20 -35 27 -35 8 0 20 -11 27 -25 8 -14 20 -23
27 -21 15 6 83 -50 83 -69 0 -16 29 -24 53 -16 26 9 22 19 -31 77 -99 107
-157 194 -211 317 -45 104 -94 307 -82 340 4 10 -7 74 -26 145 -18 70 -33 150
-33 177 0 71 -16 91 -25 32z m119 -763 c3 -8 2 -12 -4 -9 -6 3 -10 10 -10 16
0 14 7 11 14 -7z m20 -40 c3 -8 2 -12 -4 -9 -6 3 -10 10 -10 16 0 14 7 11 14
-7z"/>
<path d="M390 2072 c0 -7 7 -29 15 -50 9 -20 17 -52 19 -72 10 -94 145 -313
301 -489 50 -56 193 -178 266 -227 174 -115 365 -190 568 -223 115 -19 120
-19 174 -1 32 11 75 17 103 15 26 -1 61 3 78 11 29 13 30 13 6 13 -14 0 -42
-3 -62 -8 -22 -5 -38 -5 -38 0 0 5 -12 10 -27 10 -22 2 -19 3 12 9 39 7 38 7
-16 9 -244 6 -518 61 -661 133 -21 10 -38 16 -38 13 0 -8 130 -70 198 -95 34
-12 62 -26 62 -30 0 -12 -112 31 -200 75 -171 86 -333 217 -469 380 -115 138
-251 361 -236 385 4 6 2 10 -3 10 -5 0 -10 10 -10 23 -1 24 -41 130 -42 109z
m1023 -989 c9 -3 17 -9 17 -13 0 -5 -15 -4 -32 1 -18 5 -34 9 -35 9 -2 0 -3 5
-3 11 0 7 7 8 18 4 9 -4 25 -10 35 -12z"/>
<path d="M481 2025 c0 -5 8 -26 19 -45 11 -19 19 -30 19 -25 0 6 -8 26 -19 45
-11 19 -19 31 -19 25z"/>
<path d="M3616 1970 c3 -30 17 -82 32 -115 15 -33 25 -67 24 -76 -4 -21 92
-107 160 -144 28 -15 92 -43 142 -61 50 -18 82 -34 71 -35 -11 0 0 -5 25 -10
27 -5 58 -5 80 1 19 5 55 10 79 10 89 0 228 34 267 66 10 8 14 13 8 10 -36
-18 -239 -16 -394 3 -172 20 -249 42 -317 88 -32 21 -35 22 -19 4 32 -35 4
-23 -47 20 -28 24 -46 47 -43 55 3 8 -6 35 -19 61 -14 27 -32 77 -40 113 l-15
65 6 -55z m247 -315 c35 -19 71 -35 80 -35 9 0 18 -4 22 -9 13 -22 -139 42
-169 70 -19 17 4 9 67 -26z m212 -55 c-16 -4 -39 -8 -50 -8 l-20 -1 20 9 c11
5 34 8 50 8 l30 0 -30 -8z m45 -30 c0 -5 -12 -10 -26 -10 -14 0 -23 4 -19 10
3 6 15 10 26 10 10 0 19 -4 19 -10z"/>
<path d="M5471 1994 c0 -11 3 -14 6 -6 3 7 2 16 -1 19 -3 4 -6 -2 -5 -13z"/>
<path d="M5041 1934 c-40 -45 -116 -116 -176 -162 -17 -13 -21 -19 -10 -13 36
17 149 117 194 169 53 64 47 69 -8 6z"/>
<path d="M3670 1934 c0 -5 7 -19 15 -30 20 -26 19 -40 -2 -23 -29 24 11 -42
43 -71 29 -27 24 -9 -9 27 -11 13 -18 25 -16 28 3 2 25 -19 49 -47 24 -29 37
-49 27 -45 -25 9 -21 2 9 -18 15 -9 23 -12 20 -6 -4 6 -1 11 6 11 7 0 -11 24
-39 53 -27 28 -62 70 -77 92 -14 22 -26 35 -26 29z"/>
<path d="M586 1812 c16 -29 41 -67 57 -85 17 -20 10 -4 -19 43 -57 92 -77 114
-38 42z"/>
<path d="M3725 1750 c10 -11 20 -20 23 -20 3 0 -3 9 -13 20 -10 11 -20 20 -23
20 -3 0 3 -9 13 -20z"/>
<path d="M4785 1722 c-5 -4 -17 -16 -25 -27 -11 -15 -7 -14 13 4 24 22 32 31
25 31 -2 0 -7 -4 -13 -8z"/>
<path d="M441 1704 c0 -11 3 -14 6 -6 3 7 2 16 -1 19 -3 4 -6 -2 -5 -13z"/>
<path d="M3103 1550 c0 -47 2 -66 4 -42 2 23 2 61 0 85 -2 23 -4 4 -4 -43z"/>
<path d="M2723 1535 c-3 -9 -3 -18 -1 -21 3 -3 8 4 11 16 6 23 -1 27 -10 5z"/>
<path d="M2696 1495 c-3 -8 -1 -15 4 -15 6 0 10 7 10 15 0 8 -2 15 -4 15 -2 0
-6 -7 -10 -15z"/>
<path d="M3092 1410 c0 -19 2 -27 5 -17 2 9 2 25 0 35 -3 9 -5 1 -5 -18z"/>
<path d="M950 1386 c0 -2 8 -10 18 -17 15 -13 16 -12 3 4 -13 16 -21 21 -21
13z"/>
<path d="M3081 1354 c0 -11 3 -14 6 -6 3 7 2 16 -1 19 -3 4 -6 -2 -5 -13z"/>
<path d="M2491 1300 c-24 -22 -40 -40 -35 -40 5 0 29 18 54 40 25 21 41 39 35
39 -5 0 -30 -18 -54 -39z"/>
<path d="M3840 1068 c0 -9 62 -70 66 -65 2 2 -12 19 -31 37 -19 19 -35 31 -35
28z"/>
<path d="M4773 941 c-34 -9 -65 -20 -69 -24 -4 -4 -19 -7 -33 -7 -24 0 -68
-19 -46 -20 15 0 -18 -20 -33 -20 -7 0 -10 5 -7 10 7 12 -58 13 -129 4 -34 -5
-46 -11 -42 -20 4 -10 -4 -14 -27 -14 -24 0 -28 3 -17 10 13 9 13 10 -1 10 -8
0 -20 -5 -27 -12 -9 -9 -17 -9 -34 0 -13 6 -54 13 -93 16 -67 5 -68 5 -35 -8
29 -11 32 -14 15 -18 -11 -3 -4 -3 15 -1 19 2 42 -2 50 -8 12 -8 10 -9 -7 -4
-27 7 -31 -10 -5 -20 9 -4 65 -10 124 -14 117 -7 232 6 234 27 1 6 2 16 3 20
0 4 25 8 54 8 43 -1 61 5 101 32 27 17 43 32 35 32 -8 1 -2 8 14 16 15 8 27
17 27 19 0 3 -1 5 -2 4 -2 -1 -31 -9 -65 -18z m-310 -78 c-7 -2 -19 -2 -25 0
-7 3 -2 5 12 5 14 0 19 -2 13 -5z"/>
<path d="M4854 934 c-18 -14 -18 -15 4 -4 12 6 22 13 22 15 0 8 -5 6 -26 -11z"/>
<path d="M2465 483 c-22 -8 -47 -21 -55 -29 -9 -9 10 -4 45 11 85 38 90 47 10
18z"/>
<path d="M1550 461 c66 -23 47 -27 -30 -6 -65 17 -74 14 -23 -8 101 -44 235
-68 398 -72 l160 -4 -120 12 c-67 7 -111 16 -100 19 11 4 -2 5 -30 3 -40 -4
-45 -3 -25 5 20 8 15 9 -24 6 -27 -2 -43 0 -36 4 10 6 9 9 -1 13 -12 5 -12 7
-1 15 9 6 -12 11 -65 16 -43 4 -96 9 -118 11 -38 5 -37 4 15 -14z"/>
<path d="M1875 422 c12 -13 221 -23 250 -11 12 4 -30 8 -102 8 -67 1 -130 4
-140 7 -13 5 -15 4 -8 -4z"/>
<path d="M2228 423 c6 -2 18 -2 25 0 6 3 1 5 -13 5 -14 0 -19 -2 -12 -5z"/>
<path d="M2174 403 c4 -5 -9 -13 -31 -20 l-38 -11 45 -1 c25 0 70 9 100 19 40
14 45 18 20 14 -19 -3 -43 -8 -54 -11 -12 -3 -16 -1 -12 6 5 7 -1 11 -15 11
-12 0 -19 -3 -15 -7z"/>
</g>
</svg>
